<svg width="104" height="92" viewBox="0 0 104 92" fill="none" xmlns="http://www.w3.org/2000/svg">
<path fill-rule="evenodd" clip-rule="evenodd" d="M1 23.2439V3C1 1.34315 2.34315 0 4 0H88.5C90.1569 0 91.5 1.34314 91.5 3V54.5225C91.5 55.0674 91.0449 55.5 90.5 55.5C78.6259 55.5 69 65.1259 69 77C69 79.9792 69.606 82.8169 70.7013 85.3965C71.3653 86.9603 71.3447 88.7749 70.3924 90.1817C69.8343 91.0061 68.9036 91.5 67.9081 91.5H2.81468C1.26018 91.5 0 90.2398 0 88.6853C0 88.235 0.108039 87.7913 0.315046 87.3914L39.2562 12.1642C40.6366 9.49753 37.6773 6.68157 35.0824 8.19251L5.14289 25.6257C4.72183 25.8708 4.2433 26 3.75606 26C2.23393 26 1 24.7661 1 23.2439ZM63.5723 10.6287L28.1078 77.6287C26.6977 80.2927 28.6289 83.5 31.6431 83.5H50.9142C52.3793 83.5 53.7272 82.699 54.4276 81.4122L71.5134 50.0192C71.8327 49.4324 72 48.775 72 48.107V12.5C72 10.2909 70.2091 8.5 68 8.5H67.1076C65.6258 8.5 64.2655 9.31911 63.5723 10.6287Z" fill="#8888"/>
<circle cx="90.5" cy="77" r="13.5" fill="#aaaf"/>
</svg>
